<mxfile host="app.diagrams.net" agent="Mozilla/5.0 (Macintosh; Intel Mac OS X 10_15_7) AppleWebKit/537.36 (KHTML, like Gecko) Chrome/132.0.0.0 Safari/537.36" version="26.0.11">
  <diagram name="Page-1" id="rYql-2MtcpJO5RsYNPYb">
    <mxGraphModel>
      <root>
        <mxCell id="0" />
        <mxCell id="1" parent="0" />
        <mxCell id="2" value="Components" style="whiteSpace=wrap;strokeWidth=2;verticalAlign=top;" vertex="1" parent="1">
          <mxGeometry x="40" y="8" width="999" height="445" as="geometry" />
        </mxCell>
        <mxCell id="3" value="IP Cameras" style="whiteSpace=wrap;strokeWidth=2;" vertex="1" parent="2">
          <mxGeometry x="621" y="46" width="139" height="54" as="geometry" />
        </mxCell>
        <mxCell id="4" value="Indoor" style="rhombus;strokeWidth=2;whiteSpace=wrap;" vertex="1" parent="2">
          <mxGeometry x="144" y="181" width="100" height="100" as="geometry" />
        </mxCell>
        <mxCell id="5" value="Outdoor" style="rhombus;strokeWidth=2;whiteSpace=wrap;" vertex="1" parent="2">
          <mxGeometry x="481" y="175" width="112" height="112" as="geometry" />
        </mxCell>
        <mxCell id="6" value="HD Resolution" style="rounded=1;arcSize=20;strokeWidth=2" vertex="1" parent="2">
          <mxGeometry x="43" y="362" width="129" height="54" as="geometry" />
        </mxCell>
        <mxCell id="7" value="Night Vision" style="rounded=1;arcSize=20;strokeWidth=2" vertex="1" parent="2">
          <mxGeometry x="222" y="362" width="115" height="54" as="geometry" />
        </mxCell>
        <mxCell id="8" value="Pan-Tilt-Zoom" style="rounded=1;arcSize=20;strokeWidth=2" vertex="1" parent="2">
          <mxGeometry x="387" y="362" width="131" height="54" as="geometry" />
        </mxCell>
        <mxCell id="9" value="Wide Angle" style="rounded=1;arcSize=20;strokeWidth=2" vertex="1" parent="2">
          <mxGeometry x="673" y="362" width="109" height="54" as="geometry" />
        </mxCell>
        <mxCell id="10" value="Hikvision" style="rounded=1;arcSize=20;strokeWidth=2" vertex="1" parent="2">
          <mxGeometry x="643" y="204" width="94" height="54" as="geometry" />
        </mxCell>
        <mxCell id="11" value="AXIS" style="rounded=1;arcSize=20;strokeWidth=2" vertex="1" parent="2">
          <mxGeometry x="787" y="204" width="60" height="54" as="geometry" />
        </mxCell>
        <mxCell id="12" value="Dahua" style="rounded=1;arcSize=20;strokeWidth=2" vertex="1" parent="2">
          <mxGeometry x="898" y="204" width="74" height="54" as="geometry" />
        </mxCell>
        <mxCell id="13" value="" style="curved=1;startArrow=none;endArrow=block;exitX=0;exitY=0.66;entryX=0.5;entryY=0;" edge="1" parent="2" source="3" target="4">
          <mxGeometry relative="1" as="geometry">
            <Array as="points">
              <mxPoint x="194" y="137" />
            </Array>
          </mxGeometry>
        </mxCell>
        <mxCell id="14" value="" style="curved=1;startArrow=none;endArrow=block;exitX=0.04;exitY=0.99;entryX=0.5;entryY=0;" edge="1" parent="2" source="3" target="5">
          <mxGeometry relative="1" as="geometry">
            <Array as="points">
              <mxPoint x="537" y="137" />
            </Array>
          </mxGeometry>
        </mxCell>
        <mxCell id="15" value="" style="curved=1;startArrow=none;endArrow=block;exitX=0.04;exitY=0.99;entryX=0.5;entryY=-0.01;" edge="1" parent="2" source="4" target="6">
          <mxGeometry relative="1" as="geometry">
            <Array as="points">
              <mxPoint x="108" y="324" />
            </Array>
          </mxGeometry>
        </mxCell>
        <mxCell id="16" value="" style="curved=1;startArrow=none;endArrow=block;exitX=0.95;exitY=0.99;entryX=0.5;entryY=-0.01;" edge="1" parent="2" source="4" target="7">
          <mxGeometry relative="1" as="geometry">
            <Array as="points">
              <mxPoint x="280" y="324" />
            </Array>
          </mxGeometry>
        </mxCell>
        <mxCell id="17" value="" style="curved=1;startArrow=none;endArrow=block;exitX=0.05;exitY=1;entryX=0.5;entryY=-0.01;" edge="1" parent="2" source="5" target="8">
          <mxGeometry relative="1" as="geometry">
            <Array as="points">
              <mxPoint x="452" y="324" />
            </Array>
          </mxGeometry>
        </mxCell>
        <mxCell id="18" value="" style="curved=1;startArrow=none;endArrow=block;exitX=1;exitY=0.74;entryX=0.5;entryY=-0.01;" edge="1" parent="2" source="5" target="9">
          <mxGeometry relative="1" as="geometry">
            <Array as="points">
              <mxPoint x="727" y="324" />
            </Array>
          </mxGeometry>
        </mxCell>
        <mxCell id="19" value="" style="curved=1;dashed=1;dashPattern=2 3;startArrow=none;endArrow=block;exitX=0.5;exitY=0.99;entryX=0.5;entryY=-0.01;" edge="1" parent="2" source="3" target="10">
          <mxGeometry relative="1" as="geometry">
            <Array as="points" />
          </mxGeometry>
        </mxCell>
        <mxCell id="20" value="" style="curved=1;dashed=1;dashPattern=2 3;startArrow=none;endArrow=block;exitX=0.88;exitY=0.99;entryX=0.51;entryY=-0.01;" edge="1" parent="2" source="3" target="11">
          <mxGeometry relative="1" as="geometry">
            <Array as="points">
              <mxPoint x="817" y="137" />
            </Array>
          </mxGeometry>
        </mxCell>
        <mxCell id="21" value="" style="curved=1;dashed=1;dashPattern=2 3;startArrow=none;endArrow=block;exitX=1;exitY=0.83;entryX=0.5;entryY=-0.01;" edge="1" parent="2" source="3" target="12">
          <mxGeometry relative="1" as="geometry">
            <Array as="points">
              <mxPoint x="935" y="137" />
            </Array>
          </mxGeometry>
        </mxCell>
        <mxCell id="22" value="Cisco Devices" style="whiteSpace=wrap;strokeWidth=2;verticalAlign=top;" vertex="1" parent="1">
          <mxGeometry x="8" y="503" width="1063" height="440" as="geometry" />
        </mxCell>
        <mxCell id="23" value="Cisco Switches" style="whiteSpace=wrap;strokeWidth=2;" vertex="1" parent="22">
          <mxGeometry x="419" y="46" width="164" height="54" as="geometry" />
        </mxCell>
        <mxCell id="24" value="Layer 2" style="rhombus;strokeWidth=2;whiteSpace=wrap;" vertex="1" parent="22">
          <mxGeometry x="67" y="175" width="107" height="107" as="geometry" />
        </mxCell>
        <mxCell id="25" value="Layer 3" style="rhombus;strokeWidth=2;whiteSpace=wrap;" vertex="1" parent="22">
          <mxGeometry x="258" y="175" width="107" height="107" as="geometry" />
        </mxCell>
        <mxCell id="26" value="Router-on-a-Stick" style="rounded=1;arcSize=20;strokeWidth=2" vertex="1" parent="22">
          <mxGeometry x="43" y="356" width="155" height="54" as="geometry" />
        </mxCell>
        <mxCell id="27" value="VLAN Routing" style="rounded=1;arcSize=20;strokeWidth=2" vertex="1" parent="22">
          <mxGeometry x="248" y="356" width="126" height="54" as="geometry" />
        </mxCell>
        <mxCell id="28" value="Catalyst 9000 Series" style="rounded=1;arcSize=20;strokeWidth=2" vertex="1" parent="22">
          <mxGeometry x="414" y="201" width="174" height="54" as="geometry" />
        </mxCell>
        <mxCell id="29" value="Catalyst 3000 Series" style="rounded=1;arcSize=20;strokeWidth=2" vertex="1" parent="22">
          <mxGeometry x="638" y="201" width="174" height="54" as="geometry" />
        </mxCell>
        <mxCell id="30" value="Catalyst 2000 Series" style="rounded=1;arcSize=20;strokeWidth=2" vertex="1" parent="22">
          <mxGeometry x="862" y="201" width="174" height="54" as="geometry" />
        </mxCell>
        <mxCell id="31" value="" style="curved=1;startArrow=none;endArrow=block;exitX=0;exitY=0.75;entryX=0.5;entryY=0;" edge="1" parent="22" source="23" target="24">
          <mxGeometry relative="1" as="geometry">
            <Array as="points">
              <mxPoint x="121" y="137" />
            </Array>
          </mxGeometry>
        </mxCell>
        <mxCell id="32" value="" style="curved=1;startArrow=none;endArrow=block;exitX=0.02;exitY=0.99;entryX=0.5;entryY=0;" edge="1" parent="22" source="23" target="25">
          <mxGeometry relative="1" as="geometry">
            <Array as="points">
              <mxPoint x="311" y="137" />
            </Array>
          </mxGeometry>
        </mxCell>
        <mxCell id="33" value="" style="curved=1;startArrow=none;endArrow=block;exitX=0.5;exitY=0.99;entryX=0.5;entryY=0;" edge="1" parent="22" source="24" target="26">
          <mxGeometry relative="1" as="geometry">
            <Array as="points" />
          </mxGeometry>
        </mxCell>
        <mxCell id="34" value="" style="curved=1;startArrow=none;endArrow=block;exitX=0.5;exitY=0.99;entryX=0.5;entryY=0;" edge="1" parent="22" source="25" target="27">
          <mxGeometry relative="1" as="geometry">
            <Array as="points" />
          </mxGeometry>
        </mxCell>
        <mxCell id="35" value="" style="curved=1;dashed=1;dashPattern=2 3;startArrow=none;endArrow=block;exitX=0.5;exitY=0.99;entryX=0.5;entryY=0;" edge="1" parent="22" source="23" target="28">
          <mxGeometry relative="1" as="geometry">
            <Array as="points" />
          </mxGeometry>
        </mxCell>
        <mxCell id="36" value="" style="curved=1;dashed=1;dashPattern=2 3;startArrow=none;endArrow=block;exitX=1;exitY=0.93;entryX=0.5;entryY=0;" edge="1" parent="22" source="23" target="29">
          <mxGeometry relative="1" as="geometry">
            <Array as="points">
              <mxPoint x="725" y="137" />
            </Array>
          </mxGeometry>
        </mxCell>
        <mxCell id="37" value="" style="curved=1;dashed=1;dashPattern=2 3;startArrow=none;endArrow=block;exitX=1;exitY=0.71;entryX=0.5;entryY=0;" edge="1" parent="22" source="23" target="30">
          <mxGeometry relative="1" as="geometry">
            <Array as="points">
              <mxPoint x="949" y="137" />
            </Array>
          </mxGeometry>
        </mxCell>
        <mxCell id="38" value="Smart Office Project" style="whiteSpace=wrap;strokeWidth=2;verticalAlign=top;" vertex="1" parent="1">
          <mxGeometry x="401" y="993" width="277" height="1032" as="geometry" />
        </mxCell>
        <mxCell id="39" value="Project Planning" style="whiteSpace=wrap;strokeWidth=2;" vertex="1" parent="38">
          <mxGeometry x="58" y="46" width="178" height="54" as="geometry" />
        </mxCell>
        <mxCell id="40" value="Research Cisco devices" style="rounded=1;arcSize=20;strokeWidth=2" vertex="1" parent="38">
          <mxGeometry x="50" y="175" width="194" height="54" as="geometry" />
        </mxCell>
        <mxCell id="41" value="Design network topology" style="rounded=1;arcSize=20;strokeWidth=2" vertex="1" parent="38">
          <mxGeometry x="43" y="304" width="206" height="54" as="geometry" />
        </mxCell>
        <mxCell id="42" value="Implement VLANs" style="rounded=1;arcSize=20;strokeWidth=2" vertex="1" parent="38">
          <mxGeometry x="69" y="433" width="156" height="54" as="geometry" />
        </mxCell>
        <mxCell id="43" value="Configure Cisco switches" style="rounded=1;arcSize=20;strokeWidth=2" vertex="1" parent="38">
          <mxGeometry x="43" y="562" width="207" height="54" as="geometry" />
        </mxCell>
        <mxCell id="44" value="Install IP cameras" style="rounded=1;arcSize=20;strokeWidth=2" vertex="1" parent="38">
          <mxGeometry x="68" y="691" width="156" height="54" as="geometry" />
        </mxCell>
        <mxCell id="45" value="Setup access control" style="rounded=1;arcSize=20;strokeWidth=2" vertex="1" parent="38">
          <mxGeometry x="58" y="820" width="177" height="54" as="geometry" />
        </mxCell>
        <mxCell id="46" value="Testing and optimization" style="rounded=1;arcSize=20;strokeWidth=2" vertex="1" parent="38">
          <mxGeometry x="43" y="949" width="206" height="54" as="geometry" />
        </mxCell>
        <mxCell id="47" value="" style="curved=1;startArrow=none;endArrow=block;exitX=0.5;exitY=0.99;entryX=0.5;entryY=-0.01;" edge="1" parent="38" source="39" target="40">
          <mxGeometry relative="1" as="geometry">
            <Array as="points" />
          </mxGeometry>
        </mxCell>
        <mxCell id="48" value="" style="curved=1;startArrow=none;endArrow=block;exitX=0.5;exitY=0.99;entryX=0.5;entryY=-0.01;" edge="1" parent="38" source="40" target="41">
          <mxGeometry relative="1" as="geometry">
            <Array as="points" />
          </mxGeometry>
        </mxCell>
        <mxCell id="49" value="" style="curved=1;startArrow=none;endArrow=block;exitX=0.5;exitY=0.99;entryX=0.5;entryY=-0.01;" edge="1" parent="38" source="41" target="42">
          <mxGeometry relative="1" as="geometry">
            <Array as="points" />
          </mxGeometry>
        </mxCell>
        <mxCell id="50" value="" style="curved=1;startArrow=none;endArrow=block;exitX=0.5;exitY=0.99;entryX=0.5;entryY=-0.01;" edge="1" parent="38" source="42" target="43">
          <mxGeometry relative="1" as="geometry">
            <Array as="points" />
          </mxGeometry>
        </mxCell>
        <mxCell id="51" value="" style="curved=1;startArrow=none;endArrow=block;exitX=0.5;exitY=0.99;entryX=0.5;entryY=-0.01;" edge="1" parent="38" source="43" target="44">
          <mxGeometry relative="1" as="geometry">
            <Array as="points" />
          </mxGeometry>
        </mxCell>
        <mxCell id="52" value="" style="curved=1;startArrow=none;endArrow=block;exitX=0.5;exitY=0.99;entryX=0.5;entryY=-0.01;" edge="1" parent="38" source="44" target="45">
          <mxGeometry relative="1" as="geometry">
            <Array as="points" />
          </mxGeometry>
        </mxCell>
        <mxCell id="53" value="" style="curved=1;startArrow=none;endArrow=block;exitX=0.5;exitY=0.99;entryX=0.5;entryY=-0.01;" edge="1" parent="38" source="45" target="46">
          <mxGeometry relative="1" as="geometry">
            <Array as="points" />
          </mxGeometry>
        </mxCell>
        <mxCell id="54" value="projectStyle" style="whiteSpace=wrap;strokeWidth=2;" vertex="1" parent="1">
          <mxGeometry x="465" y="2075" width="148" height="54" as="geometry" />
        </mxCell>
        <mxCell id="55" value="ciscoDevicesStyle" style="whiteSpace=wrap;strokeWidth=2;" vertex="1" parent="1">
          <mxGeometry x="447" y="2179" width="185" height="54" as="geometry" />
        </mxCell>
        <mxCell id="56" value="componentsStyle" style="whiteSpace=wrap;strokeWidth=2;" vertex="1" parent="1">
          <mxGeometry x="448" y="2283" width="182" height="54" as="geometry" />
        </mxCell>
      </root>
    </mxGraphModel>
  </diagram>
</mxfile>
